<svg width="150" height="150" viewBox="-11.629999999999999,-285.22,622.4,660.1800000000001" xmlns="http://www.w3.org/2000/svg" version="1.1"><g id="thisSVGfigure"><path id="path0" class="#FFFFFF" d=" M0 0 L100 0 M600 0 L598.25 99.98 M98.55 82.53 L-1.39 79.04 M497.39 113.92 L502.62 14.06 M5.36 -38.2 L105.12 -31.22 M600.25 38.37 L591.53 137.99 M99.13 51.17 L-0.32 40.72 M488.75 144.68 L500.94 45.43 M15.79 -75.53 L114.82 -61.61 M595.45 76.21 L579.81 174.98 M104.28 20.47 L5.8 3.11 M475.65 174.12 L494.73 75.96 M31.14 -111.34 L128.95 -90.55 M585.72 112.82 L563.22 210.26 M113.82 -8.93 L16.79 -33.12 M458.26 201.62 L484.14 105.03 M51.13 -144.97 L147.26 -117.41 M571.28 147.55 L542.04 243.18 M127.52 -36.42 L32.41 -67.32 M436.92 226.57 L469.48 132.02 M75.47 -175.81 L169.44 -141.61 M552.46 179.78 L516.62 273.14 M145.05 -61.43 L52.33 -98.89 M412 248.44 L451.07 156.39 M103.74 -203.28 L195.09 -162.61 M529.66 208.96 L487.4 299.59 M166.01 -83.43 L76.13 -127.27 M383.96 266.74 L429.36 177.64 M135.47 -226.87 L223.76 -179.92 M503.36 234.6 L454.88 322.06 M189.92 -101.96 L103.32 -151.96 M353.32 281.05 L404.82 195.33 M170.08 -246.14 L254.88 -193.15 M474.07 256.25 L419.61 340.12 M216.24 -116.65 L133.34 -172.57 M320.64 291.02 L378 209.1 M206.99 -260.75 L287.89 -201.97 M442.4 273.56 L382.22 353.42 M244.4 -127.21 L165.6 -188.78 M286.56 296.37 L349.49 218.66 M245.53 -270.41 L322.13 -206.13 M408.95 286.27 L343.34 361.74 M273.75 -133.39 L199.44 -200.3 M251.7 296.96 L319.9 223.82 M285.02 -274.96 L356.95 -205.49 M374.4 294.21 L303.69 364.92 M303.69 -135.08 L234.22 -207.01 M216.77 292.69 L289.91 224.49 M324.79 -274.29 L391.7 -199.98 M339.44 297.28 L263.97 362.89 M333.56 -132.24 L269.28 -208.84 M182.46 283.56 L260.17 220.63 M364.13 -268.44 L425.7 -189.64 M304.74 295.51 L224.88 355.69 M362.7 -124.94 L303.92 -205.84 M149.41 269.69 L231.33 212.33 M402.34 -257.52 L458.26 -174.62 M270.96 288.97 L187.09 343.43 M390.46 -113.34 L337.47 -198.14 M118.28 251.26 L204 199.76 M438.74 -241.71 L488.74 -155.11 M238.74 277.9 L151.28 326.38 M416.24 -97.64 L369.29 -185.93 M89.69 228.59 L178.79 183.19 M472.68 -221.32 L516.52 -131.44 M208.69 262.57 L118.06 304.83 M439.45 -78.19 L398.78 -169.54 M64.21 202.03 L156.26 162.96 M503.59 -196.71 L541.05 -103.99 M181.38 243.34 L88.02 279.18 M459.59 -55.39 L425.39 -149.36 M42.37 172.03 L136.92 139.47 M530.93 -168.36 L561.83 -73.25 M157.32 220.64 L61.69 249.88 M476.21 -29.72 L448.65 -125.85 M24.63 139.11 L121.22 113.23 M554.23 -136.77 L578.42 -39.74 M136.95 195 L39.51 217.5 M488.91 -1.69 L468.12 -99.5 M11.35 103.87 L109.51 84.79 M573.1 -102.51 L590.46 -4.03 M120.61 166.98 L21.84 182.62 M497.37 28.11 L483.45 -70.92 M2.82 66.9 L102.07 54.71 M587.22 -66.25 L597.67 33.2 M108.6 137.16 L8.98 145.88 M501.38 59.06 L494.4 -40.7 M-0.73 28.89 L99.13 23.66 M596.39 -28.6 L599.88 71.34 M101.1 106.22 L1.12 107.97 M500.82 90.52 L500.82 -9.48 M0.82 -9.48 L100.8 -7.73 M600.5 9.72 L597.01 109.66 M98.23 74.78 L-1.63 69.55 M495.63 121.81 L502.61 22.05 M7.48 -47.54 L107.1 -38.82 M599.5 48 L589.05 147.45 M99.98 43.49 L0.73 31.3 M485.88 152.26 L499.8 53.23 M19.17 -84.59 L117.94 -68.95 M593.47 85.56 L576.11 184.04 M106.26 13.03 L8.1 -6.05 M471.69 181.25 L492.48 83.44 M35.71 -119.93 L133.15 -97.43 M582.55 121.76 L558.36 218.79 M116.89 -15.95 L20.3 -41.83 M453.31 208.17 L480.87 112.04 M56.85 -152.92 L152.48 -123.68 M567 155.92 L536.1 251.03 M131.59 -42.86 L37.04 -75.42 M431.05 232.41 L465.25 138.44 M82.23 -182.95 L175.59 -147.11 M547.16 187.46 L509.7 280.18 M150.03 -67.15 L57.98 -106.22 M405.31 253.45 L445.98 162.1 M111.41 -209.47 L202.04 -167.21 M523.43 215.81 L479.59 305.69 M171.76 -88.32 L82.66 -133.72 M376.55 270.79 L423.5 182.5 M143.9 -232.02 L231.36 -183.54 M496.32 240.48 L446.32 327.08 M196.32 -105.93 L110.6 -157.43 M345.34 284.04 L398.33 199.24 M179.14 -250.16 L263.01 -195.7 M466.38 261.07 L410.46 343.97 M223.16 -119.62 L141.24 -176.98 M312.25 292.87 L371.03 211.97 M216.52 -263.56 L296.38 -203.38 M434.2 277.25 L372.63 356.05 M251.67 -129.1 L173.96 -192.03 M277.92 297.04 L342.2 220.44 M255.38 -271.96 L330.85 -206.35 M400.44 288.78 L333.53 363.09 M281.27 -134.17 L208.13 -202.37 M243.01 296.41 L312.48 224.48 M295.03 -275.22 L365.74 -204.51 M365.74 295.49 L293.81 364.96 M311.26 -134.74 L243.06 -207.88 M208.18 290.9 L282.49 223.99 M334.75 -273.27 L400.36 -197.8 M330.77 297.33 L254.17 361.61 M340.99 -130.79 L278.06 -208.5 M174.1 280.57 L252.9 219 M373.86 -266.15 L434.04 -186.29 M296.22 294.34 L215.32 353.12 M369.83 -122.41 L312.47 -204.33 M141.46 265.52 L224.36 209.6 M411.66 -253.99 L466.12 -170.12 M262.75 286.65 L177.95 339.64 M397.14 -109.76 L345.64 -195.48 M110.9 245.99 L197.5 195.99 M447.5 -237.02 L495.98 -149.56 M231.02 274.46 L142.73 321.41 M422.33 -93.11 L376.93 -182.21 M83.04 222.3 L172.92 178.46 M480.75 -215.55 L523.01 -124.92 M201.62 258.1 L110.27 298.77 M444.84 -72.8 L405.77 -164.85 M58.44 194.82 L151.16 157.36 M510.83 -189.97 L546.67 -96.61 M175.1 237.96 L81.13 272.16 M464.15 -49.23 L431.59 -143.78 M37.58 164.05 L132.69 133.15 M537.2 -160.74 L566.44 -65.11 M151.92 214.49 L55.79 242.05 M479.81 -22.91 L453.93 -119.5 M20.92 130.5 L117.95 106.31 M559.42 -128.43 L581.92 -30.99 M132.52 188.2 L34.71 208.99 M491.48 5.62 L472.4 -92.54 M8.81 94.76 L107.29 77.4 M577.14 -93.61 L592.78 5.16 M117.25 159.67 L18.22 173.59 M498.85 35.77 L486.66 -63.48 M1.51 57.48 L100.96 47.03 M590.03 -56.93 L598.75 42.69 M106.35 129.51 L6.59 136.49 M501.72 66.9 L496.49 -32.96 M-0.77 19.3 L99.17 15.81 M597.95 -19.07 L599.7 80.91 M100 98.36 L0 98.36 M500 98.36 L501.75 -1.62 M2.05 -19.07 L101.99 -15.58 M600.77 19.3 L595.54 119.16 M98.28 66.9 L-1.48 59.92 M493.65 129.51 L502.37 29.89 M9.97 -56.93 L109.42 -46.48 M598.49 57.48 L586.3 156.73 M101.15 35.77 L2.12 21.85 M482.75 159.67 L498.39 60.9 M22.86 -93.61 L121.34 -76.25 M591.19 94.76 L572.11 192.92 M108.52 5.62 L10.71 -15.17 M467.48 188.2 L489.98 90.76 M40.58 -128.43 L137.61 -104.24 M579.08 130.5 L553.2 227.09 M120.19 -22.91 L24.06 -50.47 M448.08 214.49 L477.32 118.86 M62.8 -160.74 L157.91 -129.84 M562.42 164.05 L529.86 258.6 M135.85 -49.23 L41.88 -83.43 M424.9 237.96 L460.74 144.6 M89.17 -189.97 L181.89 -152.51 M541.56 194.82 L502.49 286.87 M155.16 -72.8 L63.81 -113.47 M398.38 258.1 L440.64 167.47 M119.25 -215.55 L209.13 -171.71 M516.96 222.3 L471.56 311.4 M177.67 -93.11 L89.38 -140.06 M368.98 274.46 L417.46 187 M152.5 -237.02 L239.1 -187.02 M489.1 245.99 L437.6 331.71 M202.86 -109.76 L118.06 -162.75 M337.25 286.65 L391.71 202.78 M188.34 -253.99 L271.24 -198.07 M458.54 265.52 L401.18 347.44 M230.17 -122.41 L149.27 -181.19 M303.78 294.34 L363.96 214.48 M226.14 -266.15 L304.94 -204.58 M425.9 280.57 L362.97 358.28 M259.01 -130.79 L182.41 -195.07 M269.23 297.33 L334.84 221.86 M265.25 -273.27 L339.56 -206.36 M391.82 290.9 L323.62 364.04 M288.74 -134.74 L216.81 -204.21 M234.26 295.49 L304.97 224.78 M304.97 -275.22 L374.44 -203.29 M356.99 296.41 L283.85 364.61 M318.73 -134.17 L251.82 -208.48 M199.56 288.78 L275.03 223.17 M344.62 -271.96 L408.9 -195.36 M322.08 297.04 L244.37 359.97 M348.33 -129.1 L286.76 -207.9 M165.8 277.25 L245.66 217.07 M383.48 -263.56 L442.26 -182.66 M287.75 292.87 L205.83 350.23 M376.84 -119.62 L320.92 -202.52 M133.62 261.07 L217.49 206.61 M420.86 -250.16 L473.85 -165.36 M254.66 284.04 L168.94 335.54 M403.68 -105.93 L353.68 -192.53 M103.68 240.48 L191.14 192 M456.1 -232.02 L503.05 -143.73 M223.45 270.79 L134.35 316.19 M428.24 -88.32 L384.4 -178.2 M76.57 215.81 L167.2 173.55 M488.59 -209.47 L529.26 -118.12 M194.69 253.45 L102.64 292.52 M449.97 -67.15 L412.51 -159.87 M52.84 187.46 L146.2 151.62 M517.77 -182.95 L551.97 -88.98 M168.95 232.41 L74.4 264.97 M468.41 -42.86 L437.51 -137.97 M33 155.92 L128.63 126.68 M543.15 -152.92 L570.71 -56.79 M146.69 208.17 L50.1 234.05 M483.11 -15.95 L458.92 -112.98 M17.45 121.76 L114.89 99.26 M564.29 -119.93 L585.08 -22.12 M128.31 181.25 L30.15 200.33 M493.74 13.03 L476.38 -85.45 M6.53 85.56 L105.3 69.92 M580.83 -84.59 L594.75 14.44 M114.12 152.26 L14.87 164.45 M500.02 43.49 L489.57 -55.96 M0.5 48 L100.12 39.28 M592.52 -47.54 L599.5 52.22 M104.37 121.81 L4.51 127.04 M501.77 74.78 L498.28 -25.16 M-0.5 9.72 L99.48 7.97 M599.18 -9.48 L599.18 90.52 M99.18 90.52 L-0.8 88.77 M498.9 106.22 L502.39 6.28 M3.61 -28.6 L103.47 -23.37 M600.73 28.89 L593.75 128.65 M98.62 59.06 L-1 50.34 M491.4 137.16 L501.85 37.71 M12.78 -66.25 L112.03 -54.06 M597.18 66.9 L583.26 165.93 M102.63 28.11 L3.86 12.47 M479.39 166.98 L496.75 68.5 M26.9 -102.51 L125.06 -83.43 M588.65 103.87 L567.86 201.68 M111.09 -1.69 L13.65 -24.19 M463.05 195 L487.24 97.97 M45.77 -136.77 L142.36 -110.89 M575.37 139.11 L547.81 235.24 M123.79 -29.72 L28.16 -58.96 M442.68 220.64 L473.58 125.53 M69.07 -168.36 L163.62 -135.8 M557.63 172.03 L523.43 266 M140.41 -55.39 L47.05 -91.23 M418.62 243.34 L456.08 150.62 M96.41 -196.71 L188.46 -157.64 M535.79 202.03 L495.12 293.38 M160.55 -78.19 L69.92 -120.45 M391.31 262.57 L435.15 172.69 M127.32 -221.32 L216.42 -175.92 M510.31 228.59 L463.36 316.88 M183.76 -97.64 L96.3 -146.12 M361.26 277.9 L411.26 191.3 M161.26 -241.71 L246.98 -190.21 M481.72 251.26 L428.73 336.06 M209.54 -113.34 L125.67 -167.8 M329.04 288.97 L384.96 206.07 M197.66 -257.52 L279.58 -200.16 M450.59 269.69 L391.81 350.59 M237.3 -124.94 L157.44 -185.12 M295.26 295.51 L356.83 216.71 M235.87 -268.44 L313.58 -205.51 M417.54 283.56 L353.26 360.16 M266.44 -132.24 L190.97 -197.85 M260.56 297.28 L327.47 222.97 M275.21 -274.29 L348.35 -206.09 M383.23 292.69 L313.76 364.62 M296.31 -135.08 L225.6 -205.79 M225.6 294.21 L297.53 224.74 M314.98 -274.96 L383.18 -201.82 M348.3 296.96 L273.99 363.87 M326.25 -133.39 L260.64 -208.86 M191.05 286.27 L267.65 221.99 M354.47 -270.41 L417.4 -192.7 M313.44 296.37 L234.64 357.94 M355.6 -127.21 L295.42 -207.07 M157.6 273.56 L238.5 214.78 M393.01 -260.75 L450.37 -178.83 M279.36 291.02 L196.46 346.94 M383.76 -116.65 L329.3 -200.52 M125.93 256.25 L210.73 203.26 M429.92 -246.14 L481.42 -160.42 M246.68 281.05 L160.08 331.05 M410.08 -101.96 L361.6 -189.42 M96.64 234.6 L184.93 187.65 M464.53 -226.87 L509.93 -137.77 M216.04 266.74 L126.16 310.58 M433.99 -83.43 L391.73 -174.06 M70.34 208.96 L161.69 168.29 M496.26 -203.28 L535.33 -111.23 M188 248.44 L95.28 285.9 M454.95 -61.43 L419.11 -154.79 M47.54 179.78 L141.51 145.58 M524.53 -175.81 L557.09 -81.26 M163.08 226.57 L67.97 257.47 M472.48 -36.42 L443.24 -132.05 M28.72 147.55 L124.85 119.99 M548.87 -144.97 L574.75 -48.38 M141.74 201.62 L44.71 225.81 M486.18 -8.93 L463.68 -106.37 M14.28 112.82 L112.09 92.03 M568.86 -111.34 L587.94 -13.18 M124.35 174.12 L25.87 191.48 M495.72 20.47 L480.08 -78.3 M4.55 76.21 L103.58 62.29 M584.21 -75.53 L596.4 23.72 M111.25 144.68 L11.8 155.13 M500.87 51.17 L492.15 -48.45 M-0.25 38.37 L99.51 31.39 M594.64 -38.2 L599.87 61.66 M102.61 113.92 L2.67 117.41 M501.45 82.53 L499.7 -17.45" stroke-width="2" stroke="#FFFFFF"></path><path id="path1" class="#330099" d=" M100 0 L600 0 M598.25 99.98 L98.55 82.53 M-1.39 79.04 L497.39 113.92 M502.62 14.06 L5.36 -38.2 M105.12 -31.22 L600.25 38.37 M591.53 137.99 L99.13 51.17 M-0.32 40.72 L488.75 144.68 M500.94 45.43 L15.79 -75.53 M114.82 -61.61 L595.45 76.21 M579.81 174.98 L104.28 20.47 M5.8 3.11 L475.65 174.12 M494.73 75.96 L31.14 -111.34 M128.95 -90.55 L585.72 112.82 M563.22 210.26 L113.82 -8.93 M16.79 -33.12 L458.26 201.62 M484.14 105.03 L51.13 -144.97 M147.26 -117.41 L571.28 147.55 M542.04 243.18 L127.52 -36.42 M32.41 -67.32 L436.92 226.57 M469.48 132.02 L75.47 -175.81 M169.44 -141.61 L552.46 179.78 M516.62 273.14 L145.05 -61.43 M52.33 -98.89 L412 248.44 M451.07 156.39 L103.74 -203.28 M195.09 -162.61 L529.66 208.96 M487.4 299.59 L166.01 -83.43 M76.13 -127.27 L383.96 266.74 M429.36 177.64 L135.47 -226.87 M223.76 -179.92 L503.36 234.6 M454.88 322.06 L189.92 -101.96 M103.32 -151.96 L353.32 281.05 M404.82 195.33 L170.08 -246.14 M254.88 -193.15 L474.07 256.25 M419.61 340.12 L216.24 -116.65 M133.34 -172.57 L320.64 291.02 M378 209.1 L206.99 -260.75 M287.89 -201.97 L442.4 273.56 M382.22 353.42 L244.4 -127.21 M165.6 -188.78 L286.56 296.37 M349.49 218.66 L245.53 -270.41 M322.13 -206.13 L408.95 286.27 M343.34 361.74 L273.75 -133.39 M199.44 -200.3 L251.7 296.96 M319.9 223.82 L285.02 -274.96 M356.95 -205.49 L374.4 294.21 M303.69 364.92 L303.69 -135.08 M234.22 -207.01 L216.77 292.69 M289.91 224.49 L324.79 -274.29 M391.7 -199.98 L339.44 297.28 M263.97 362.89 L333.56 -132.24 M269.28 -208.84 L182.46 283.56 M260.17 220.63 L364.13 -268.44 M425.7 -189.64 L304.74 295.51 M224.88 355.69 L362.7 -124.94 M303.92 -205.84 L149.41 269.69 M231.33 212.33 L402.34 -257.52 M458.26 -174.62 L270.96 288.97 M187.09 343.43 L390.46 -113.34 M337.47 -198.14 L118.28 251.26 M204 199.76 L438.74 -241.71 M488.74 -155.11 L238.74 277.9 M151.28 326.38 L416.24 -97.64 M369.29 -185.93 L89.69 228.59 M178.79 183.19 L472.68 -221.32 M516.52 -131.44 L208.69 262.57 M118.06 304.83 L439.45 -78.19 M398.78 -169.54 L64.21 202.03 M156.26 162.96 L503.59 -196.71 M541.05 -103.99 L181.38 243.34 M88.02 279.18 L459.59 -55.39 M425.39 -149.36 L42.37 172.03 M136.92 139.47 L530.93 -168.36 M561.83 -73.25 L157.32 220.64 M61.69 249.88 L476.21 -29.72 M448.65 -125.85 L24.63 139.11 M121.22 113.23 L554.23 -136.77 M578.42 -39.74 L136.95 195 M39.51 217.5 L488.91 -1.69 M468.12 -99.5 L11.35 103.87 M109.51 84.79 L573.1 -102.51 M590.46 -4.03 L120.61 166.98 M21.84 182.62 L497.37 28.11 M483.45 -70.92 L2.82 66.9 M102.07 54.71 L587.22 -66.25 M597.67 33.2 L108.6 137.16 M8.98 145.88 L501.38 59.06 M494.4 -40.7 L-0.73 28.89 M99.13 23.66 L596.39 -28.6 M599.88 71.34 L101.1 106.22 M1.12 107.97 L500.82 90.52 M500.82 -9.48 L0.82 -9.48 M100.8 -7.73 L600.5 9.72 M597.01 109.66 L98.23 74.78 M-1.63 69.55 L495.63 121.81 M502.61 22.05 L7.48 -47.54 M107.1 -38.82 L599.5 48 M589.05 147.45 L99.98 43.49 M0.73 31.3 L485.88 152.26 M499.8 53.23 L19.17 -84.59 M117.94 -68.95 L593.47 85.56 M576.11 184.04 L106.26 13.03 M8.1 -6.05 L471.69 181.25 M492.48 83.44 L35.71 -119.93 M133.15 -97.43 L582.55 121.76 M558.36 218.79 L116.89 -15.95 M20.3 -41.83 L453.31 208.17 M480.87 112.04 L56.85 -152.92 M152.48 -123.68 L567 155.92 M536.1 251.03 L131.59 -42.86 M37.04 -75.42 L431.05 232.41 M465.25 138.44 L82.23 -182.95 M175.59 -147.11 L547.16 187.46 M509.7 280.18 L150.03 -67.15 M57.98 -106.22 L405.31 253.45 M445.98 162.1 L111.41 -209.47 M202.04 -167.21 L523.43 215.81 M479.59 305.69 L171.76 -88.32 M82.66 -133.72 L376.55 270.79 M423.5 182.5 L143.9 -232.02 M231.36 -183.54 L496.32 240.48 M446.32 327.08 L196.32 -105.93 M110.6 -157.43 L345.34 284.04 M398.33 199.24 L179.14 -250.16 M263.01 -195.7 L466.38 261.07 M410.46 343.97 L223.16 -119.62 M141.24 -176.98 L312.25 292.87 M371.03 211.97 L216.52 -263.56 M296.38 -203.38 L434.2 277.25 M372.63 356.05 L251.67 -129.1 M173.96 -192.03 L277.92 297.04 M342.2 220.44 L255.38 -271.96 M330.85 -206.35 L400.44 288.78 M333.53 363.09 L281.27 -134.17 M208.13 -202.37 L243.01 296.41 M312.48 224.48 L295.03 -275.22 M365.74 -204.51 L365.74 295.49 M293.81 364.96 L311.26 -134.74 M243.06 -207.88 L208.18 290.9 M282.49 223.99 L334.75 -273.27 M400.36 -197.8 L330.77 297.33 M254.17 361.61 L340.99 -130.79 M278.06 -208.5 L174.1 280.57 M252.9 219 L373.86 -266.15 M434.04 -186.29 L296.22 294.34 M215.32 353.12 L369.83 -122.41 M312.47 -204.33 L141.46 265.52 M224.36 209.6 L411.66 -253.99 M466.12 -170.12 L262.75 286.65 M177.95 339.64 L397.14 -109.76 M345.64 -195.48 L110.9 245.99 M197.5 195.99 L447.5 -237.02 M495.98 -149.56 L231.02 274.46 M142.73 321.41 L422.33 -93.11 M376.93 -182.21 L83.04 222.3 M172.92 178.46 L480.75 -215.55 M523.01 -124.92 L201.62 258.1 M110.27 298.77 L444.84 -72.8 M405.77 -164.85 L58.44 194.82 M151.16 157.36 L510.83 -189.97 M546.67 -96.61 L175.1 237.96 M81.13 272.16 L464.15 -49.23 M431.59 -143.78 L37.58 164.05 M132.69 133.15 L537.2 -160.74 M566.44 -65.11 L151.92 214.49 M55.79 242.05 L479.81 -22.91 M453.93 -119.5 L20.92 130.5 M117.95 106.31 L559.42 -128.43 M581.92 -30.99 L132.52 188.2 M34.71 208.99 L491.48 5.62 M472.4 -92.54 L8.81 94.76 M107.29 77.4 L577.14 -93.61 M592.78 5.16 L117.25 159.67 M18.22 173.59 L498.85 35.77 M486.66 -63.48 L1.51 57.48 M100.96 47.03 L590.03 -56.93 M598.75 42.69 L106.35 129.51 M6.59 136.49 L501.72 66.9 M496.49 -32.96 L-0.77 19.3 M99.17 15.81 L597.95 -19.07 M599.7 80.91 L100 98.36 M0 98.36 L500 98.36 M501.75 -1.62 L2.05 -19.07 M101.99 -15.58 L600.77 19.3 M595.54 119.16 L98.28 66.9 M-1.48 59.92 L493.65 129.51 M502.37 29.89 L9.97 -56.93 M109.42 -46.48 L598.49 57.48 M586.3 156.73 L101.15 35.77 M2.12 21.85 L482.75 159.67 M498.39 60.9 L22.86 -93.61 M121.34 -76.25 L591.19 94.76 M572.11 192.92 L108.52 5.62 M10.71 -15.17 L467.48 188.2 M489.98 90.76 L40.58 -128.43 M137.61 -104.24 L579.08 130.5 M553.2 227.09 L120.19 -22.91 M24.06 -50.47 L448.08 214.49 M477.32 118.86 L62.8 -160.74 M157.91 -129.84 L562.42 164.05 M529.86 258.6 L135.85 -49.23 M41.88 -83.43 L424.9 237.96 M460.74 144.6 L89.17 -189.97 M181.89 -152.51 L541.56 194.82 M502.49 286.87 L155.16 -72.8 M63.81 -113.47 L398.38 258.1 M440.64 167.47 L119.25 -215.55 M209.13 -171.71 L516.96 222.3 M471.56 311.4 L177.67 -93.11 M89.38 -140.06 L368.98 274.46 M417.46 187 L152.5 -237.02 M239.1 -187.02 L489.1 245.99 M437.6 331.71 L202.86 -109.76 M118.06 -162.75 L337.25 286.65 M391.71 202.78 L188.34 -253.99 M271.24 -198.07 L458.54 265.52 M401.18 347.44 L230.17 -122.41 M149.27 -181.19 L303.78 294.34 M363.96 214.48 L226.14 -266.15 M304.94 -204.58 L425.9 280.57 M362.97 358.28 L259.01 -130.79 M182.41 -195.07 L269.23 297.33 M334.84 221.86 L265.25 -273.27 M339.56 -206.36 L391.82 290.9 M323.62 364.04 L288.74 -134.74 M216.81 -204.21 L234.26 295.49 M304.97 224.78 L304.97 -275.22 M374.44 -203.29 L356.99 296.41 M283.85 364.61 L318.73 -134.17 M251.82 -208.48 L199.56 288.78 M275.03 223.17 L344.62 -271.96 M408.9 -195.36 L322.08 297.04 M244.37 359.97 L348.33 -129.1 M286.76 -207.9 L165.8 277.25 M245.66 217.07 L383.48 -263.56 M442.26 -182.66 L287.75 292.87 M205.83 350.23 L376.84 -119.62 M320.92 -202.52 L133.62 261.07 M217.49 206.61 L420.86 -250.16 M473.85 -165.36 L254.66 284.04 M168.94 335.54 L403.68 -105.93 M353.68 -192.53 L103.68 240.48 M191.14 192 L456.1 -232.02 M503.05 -143.73 L223.45 270.79 M134.35 316.19 L428.24 -88.32 M384.4 -178.2 L76.57 215.81 M167.2 173.55 L488.59 -209.47 M529.26 -118.12 L194.69 253.45 M102.64 292.52 L449.97 -67.15 M412.51 -159.87 L52.84 187.46 M146.2 151.62 L517.77 -182.95 M551.97 -88.98 L168.95 232.41 M74.4 264.97 L468.41 -42.86 M437.51 -137.97 L33 155.92 M128.63 126.68 L543.15 -152.92 M570.71 -56.79 L146.69 208.17 M50.1 234.05 L483.11 -15.95 M458.92 -112.98 L17.45 121.76 M114.89 99.26 L564.29 -119.93 M585.08 -22.12 L128.31 181.25 M30.15 200.33 L493.74 13.03 M476.38 -85.45 L6.53 85.56 M105.3 69.92 L580.83 -84.59 M594.75 14.44 L114.12 152.26 M14.87 164.45 L500.02 43.49 M489.57 -55.96 L0.5 48 M100.12 39.28 L592.52 -47.54 M599.5 52.22 L104.37 121.81 M4.51 127.04 L501.77 74.78 M498.28 -25.16 L-0.5 9.72 M99.48 7.97 L599.18 -9.48 M599.18 90.52 L99.18 90.52 M-0.8 88.77 L498.9 106.22 M502.39 6.28 L3.61 -28.6 M103.47 -23.37 L600.73 28.89 M593.75 128.65 L98.62 59.06 M-1 50.34 L491.4 137.16 M501.85 37.71 L12.78 -66.25 M112.03 -54.06 L597.18 66.9 M583.26 165.93 L102.63 28.11 M3.86 12.47 L479.39 166.98 M496.75 68.5 L26.9 -102.51 M125.06 -83.43 L588.65 103.87 M567.86 201.68 L111.09 -1.69 M13.65 -24.19 L463.05 195 M487.24 97.97 L45.77 -136.77 M142.36 -110.89 L575.37 139.11 M547.81 235.24 L123.79 -29.72 M28.16 -58.96 L442.68 220.64 M473.58 125.53 L69.07 -168.36 M163.62 -135.8 L557.63 172.03 M523.43 266 L140.41 -55.39 M47.05 -91.23 L418.62 243.34 M456.08 150.62 L96.41 -196.71 M188.46 -157.64 L535.79 202.03 M495.12 293.38 L160.55 -78.19 M69.92 -120.45 L391.31 262.57 M435.15 172.69 L127.32 -221.32 M216.42 -175.92 L510.31 228.59 M463.36 316.88 L183.76 -97.64 M96.3 -146.12 L361.26 277.9 M411.26 191.3 L161.26 -241.71 M246.98 -190.21 L481.72 251.26 M428.73 336.06 L209.54 -113.34 M125.67 -167.8 L329.04 288.97 M384.96 206.07 L197.66 -257.52 M279.58 -200.16 L450.59 269.69 M391.81 350.59 L237.3 -124.94 M157.44 -185.12 L295.26 295.51 M356.83 216.71 L235.87 -268.44 M313.58 -205.51 L417.54 283.56 M353.26 360.16 L266.44 -132.24 M190.97 -197.85 L260.56 297.28 M327.47 222.97 L275.21 -274.29 M348.35 -206.09 L383.23 292.69 M313.76 364.62 L296.31 -135.08 M225.6 -205.79 L225.6 294.21 M297.53 224.74 L314.98 -274.96 M383.18 -201.82 L348.3 296.96 M273.99 363.87 L326.25 -133.39 M260.64 -208.86 L191.05 286.27 M267.65 221.99 L354.47 -270.41 M417.4 -192.7 L313.44 296.37 M234.64 357.94 L355.6 -127.21 M295.42 -207.07 L157.6 273.56 M238.5 214.78 L393.01 -260.75 M450.37 -178.83 L279.36 291.02 M196.46 346.94 L383.76 -116.65 M329.3 -200.52 L125.93 256.25 M210.73 203.26 L429.92 -246.14 M481.42 -160.42 L246.68 281.05 M160.08 331.05 L410.08 -101.96 M361.6 -189.42 L96.64 234.6 M184.93 187.65 L464.53 -226.87 M509.93 -137.77 L216.04 266.74 M126.16 310.58 L433.99 -83.43 M391.73 -174.06 L70.34 208.96 M161.69 168.29 L496.26 -203.28 M535.33 -111.23 L188 248.44 M95.28 285.9 L454.95 -61.43 M419.11 -154.79 L47.54 179.78 M141.51 145.58 L524.53 -175.81 M557.09 -81.26 L163.08 226.57 M67.97 257.47 L472.48 -36.42 M443.24 -132.05 L28.72 147.55 M124.85 119.99 L548.87 -144.97 M574.75 -48.38 L141.74 201.62 M44.71 225.81 L486.18 -8.93 M463.68 -106.37 L14.28 112.82 M112.09 92.03 L568.86 -111.34 M587.94 -13.18 L124.35 174.12 M25.87 191.48 L495.72 20.47 M480.08 -78.3 L4.55 76.21 M103.58 62.29 L584.21 -75.53 M596.4 23.72 L111.25 144.68 M11.8 155.13 L500.87 51.17 M492.15 -48.45 L-0.25 38.37 M99.51 31.39 L594.64 -38.2 M599.87 61.66 L102.61 113.92 M2.67 117.41 L501.45 82.53 M499.7 -17.45 L0 0" stroke-width="1" stroke="#330099"></path></g></svg>